{"title":"Arrow S02E08 - 720p HDTV x264 [MKV,AC3,5.1] Ehhhh","uid":9308286,"size":440274988,"categoryP":"video","categoryS":"hd___tv_shows","magnet":"?xt=urn:btih:c79c020765bfcd463e5f47f685c6b2c9885b4b5b&amp;dn=Arrow+S02E08+-+720p+HDTV+x264+%5BMKV%2CAC3%2C5.1%5D+Ehhhh&amp;tr=udp%3A%2F%2Ftracker.openbittorrent.com%3A80&amp;tr=udp%3A%2F%2Fopen.demonii.com%3A1337&amp;tr=udp%3A%2F%2Ftracker.coppersurfer.tk%3A6969&amp;tr=udp%3A%2F%2Fexodus.desync.com%3A6969","seeders":0,"leechers":0,"uploader":"mynameisurlz","files":-1,"time":1386358593,"description":"\nA seemingly impossible robbery at Queen Consolidated's Applied Sciences Division brings Central City police scientist Barry Allen to town. Citing a similar case back home, Barry offers to help Oliver and team with the investigation. Oliver senses there is more to Barry than meets the eye, but he's distracted by the similarities between this current case and something that happened on the island. Meanwhile, Felicity takes a liking to Barry, which doesn't go unnoticed by Oliver. Sin asks Roy for help when a friend of hers goes missing. Roy is surprised when Thea not only encourages him to help, but joins the search. Unfortunately, Sin's friend is connected to Brother Blood, and their search ultimately gets one of them seriously injured.\n\nimageimage\n\nGeneral\nFormat : Matroska\nFormat version : Version 4 / Version 2\nFile size : 419 MiB\nDuration : 42mn 4s\nOverall bit rate : 1 392 Kbps\nEncoded date : UTC 2013-12-05 11:29:24\nWriting application : mkvmerge v6.2.0 ('Promised Land') built on Apr 28 2013 12:22:01\nWriting library : libebml v1.3.0 + libmatroska v1.4.0\n\nVideo\nID : 1\nFormat : AVC\nFormat/Info : Advanced Video Codec\nFormat profile : &lt;a class=&quot;__cf_email__&quot; href=&quot;/cdn-cgi/l/email-protection&quot; data-cfemail=&quot;1058797778505c243e21&quot;&gt;[email&amp;#160;protected]&lt;/a&gt;&lt;script data-cfhash='f9e31' type=&quot;text/javascript&quot;&gt;\n/* &lt;![CDATA[ */!function(){try{var t=&quot;currentScript&quot;in document?document.currentScript:function(){for(var t=document.getElementsByTagName(&quot;script&quot;),e=t.length;e--;)if(t[e].getAttribute(&quot;data-cfhash&quot;))return t[e]}();if(t&amp;&amp;t.previousSibling){var e,r,n,i,c=t.previousSibling,a=c.getAttribute(&quot;data-cfemail&quot;);if(a){for(e=&quot;&quot;,r=parseInt(a.substr(0,2),16),n=2;a.length-n;n+=2)i=parseInt(a.substr(n,2),16)^r,e+=String.fromCharCode(i);e=document.createTextNode(e),c.parentNode.replaceChild(e,c)}t.parentNode.removeChild(t);}}catch(u){}}()/* ]]&gt; */&lt;/script&gt;\nFormat settings, CABAC : Yes\nFormat settings, ReFrames : 14 frames\nCodec ID : V_MPEG4/ISO/AVC\nDuration : 42mn 4s\nBit rate : 1 010 Kbps\nWidth : 1 280 pixels\nHeight : 720 pixels\nDisplay aspect ratio : 16:9\nFrame rate mode : Constant\nFrame rate : 23.976 fps\nColor space : YUV\nChroma subsampling : 4:2:0\nBit depth : 8 bits\nScan type : Progressive\nBits/(Pixel*Frame) : 0.046\nStream size : 295 MiB (70%)\nWriting library : x264 core 138 r2359+704+48 3f879a0 tMod [8-bit@all X86]\nDefault : Yes\nForced : No\n\nAudio\nID : 2\nFormat : AC-3\nFormat/Info : Audio Coding 3\nMode extension : CM (complete main)\nFormat settings, Endianness : Big\nCodec ID : A_AC3\nDuration : 42mn 4s\nBit rate mode : Constant\nBit rate : 384 Kbps\nChannel(s) : 6 channels\nChannel positions : Front: L C R, Side: L R, LFE\nSampling rate : 48.0 KHz\nBit depth : 16 bits\nCompression mode : Lossy\nStream size : 116 MiB (28%)\nDefault : Yes\nForced : No","torrent":{"xt":"urn:btih:c79c020765bfcd463e5f47f685c6b2c9885b4b5b","amp;dn":"Arrow+S02E08+-+720p+HDTV+x264+%5BMKV%2CAC3%2C5.1%5D+Ehhhh","amp;tr":["udp%3A%2F%2Ftracker.openbittorrent.com%3A80","udp%3A%2F%2Fopen.demonii.com%3A1337","udp%3A%2F%2Ftracker.coppersurfer.tk%3A6969","udp%3A%2F%2Fexodus.desync.com%3A6969"],"infoHash":"c79c020765bfcd463e5f47f685c6b2c9885b4b5b","infoHashBuffer":{"type":"Buffer","data":[199,156,2,7,101,191,205,70,62,95,71,246,133,198,178,201,136,91,75,91]},"announce":[],"urlList":[]}}